<svg version="1.2" xmlns="http://www.w3.org/2000/svg" viewBox="0 0 99 87" width="99" height="87">
	<title>klevere-logo-svg</title>
	<defs>
		<clipPath clipPathUnits="userSpaceOnUse" id="cp1">
			<path d="m0 4h93.75v80.33h-93.75z"/>
		</clipPath>
	</defs>
	<style>
		.s0 { fill: #ffffff } 
	</style>
	<g id="Clip-Path: Clip-Path" clip-path="url(#cp1)">
		<g id="Clip-Path">
			<g id="Layer">
				<path id="Layer" fill-rule="evenodd" class="s0" d="m93.8 58.6c0 3.9-3.2 7-7.1 7h-2.3v4.7c0 7.8-6.3 14.1-14.1 14.1h-46.9c-7.7 0-14-6.3-14-14.1v-4.7h-2.4c-3.9 0-7-3.1-7-7 0-3.9 3.1-7.1 7-7.1h2.4v-4.6c0-7.8 6.3-14.1 14-14.1h18.8v-10.7c-1.4-0.8-2.6-2-3.4-3.4-2.6-4.5-1.1-10.2 3.4-12.8 4.5-2.6 10.2-1.1 12.8 3.4 2.6 4.5 1 10.2-3.4 12.8v10.7h18.7c7.8 0 14.1 6.3 14.1 14.1v4.6h2.3c3.9 0 7.1 3.2 7.1 7.1zm-14.1-11.7c0-5.2-4.2-9.4-9.4-9.4h-46.9c-5.1 0-9.3 4.2-9.3 9.4v23.4c0 5.2 4.2 9.4 9.3 9.4h46.9c5.2 0 9.4-4.2 9.4-9.4zm-9.4 11.7c0 3.9-3.1 7.1-7 7.1-3.9 0-7-3.2-7-7.1 0-3.9 3.1-7 7-7 3.9 0 7 3.1 7 7zm-32.8 0c0 3.9-3.2 7.1-7 7.1-3.9 0-7.1-3.2-7.1-7.1 0-3.9 3.2-7 7.1-7 3.8 0 7 3.1 7 7z"/>
			</g>
		</g>
	</g>
	<g id="Layer">
		<g id="Layer">
			<g id="Layer">
				<path id="Layer" class="s0" d="m126 57.4v13.3h-8.4v-34.4h8.4v13.4l9.6-13.4h10v0.5l-12.2 16.6 13.3 16.9v0.4h-10.4z"/>
			</g>
		</g>
	</g>
	<g id="Layer">
		<g id="Layer">
			<g id="Layer">
				<path id="Layer" class="s0" d="m156.5 70.7h-7.9v-34.4h7.9z"/>
			</g>
		</g>
	</g>
	<g id="Layer">
		<g id="Layer">
			<g id="Layer">
				<path id="Layer" fill-rule="evenodd" class="s0" d="m187.5 60.4h-19.1c0.9 2.5 3.4 3.7 5.7 3.8 1.7 0 3.4-0.6 4.5-1.9h8.4c-2 5.8-7.5 8.7-13 8.7-6.9 0-13.7-4.5-13.7-13.6 0-9.1 6.8-13.7 13.8-13.7 6.8 0 13.7 4.6 13.7 13.7 0 1.1-0.1 2-0.3 3zm-13.6-9.9c-2.3 0-4.4 1.3-5.2 3.9h10.6c-0.7-2.7-2.9-3.9-5.4-3.9z"/>
			</g>
		</g>
	</g>
	<g id="Layer">
		<g id="Layer">
			<g id="Layer">
				<path id="Layer" class="s0" d="m200.9 70.8l-10.1-25.4v-1.3h8l3.3 8.5 2 6.8 1.8-6.8 3.4-8.5h8v1.3l-10.1 25.4z"/>
			</g>
		</g>
	</g>
	<g id="Layer">
		<g id="Layer">
			<g id="Layer">
				<path id="Layer" fill-rule="evenodd" class="s0" d="m246.8 60.4h-19c0.9 2.5 3.3 3.7 5.7 3.8 1.7 0 3.3-0.6 4.4-1.9h8.5c-2.1 5.8-7.5 8.7-13 8.7-6.9 0-13.8-4.5-13.8-13.6 0-9.1 6.9-13.7 13.8-13.7 6.9 0 13.7 4.6 13.7 13.7 0 1.1-0.1 2-0.3 3zm-13.5-9.9c-2.3 0-4.5 1.3-5.2 3.9h10.6c-0.8-2.7-2.9-3.9-5.4-3.9z"/>
			</g>
		</g>
	</g>
	<g id="Layer">
		<g id="Layer">
			<g id="Layer">
				<path id="Layer" class="s0" d="m265 43.6c1 0 2 0.1 3 0.4l-0.1 7.3c-0.8-0.3-1.7-0.4-2.6-0.4-2.8 0-5.6 1.5-5.6 5.1v14.7h-7.8v-26.6h7l0.3 1.8c1.7-1.6 3.7-2.3 5.8-2.3z"/>
			</g>
		</g>
	</g>
	<g id="Layer">
		<g id="Layer">
			<g id="Layer">
				<path id="Layer" fill-rule="evenodd" class="s0" d="m298.5 60.4h-19.1c0.9 2.5 3.3 3.7 5.7 3.8 1.7 0 3.3-0.6 4.5-1.9h8.4c-2 5.8-7.5 8.7-13 8.7-6.9 0-13.7-4.5-13.7-13.6 0-9.1 6.8-13.7 13.7-13.7 6.9 0 13.8 4.6 13.8 13.7 0 1.1-0.1 2-0.3 3zm-13.6-9.9c-2.3 0-4.4 1.3-5.2 3.9h10.6c-0.7-2.7-2.9-3.9-5.4-3.9z"/>
			</g>
		</g>
	</g>
	<g id="Layer">
		<g id="Layer">
			<g id="Layer">
				<path id="Layer" class="s0" d="m310.9 66.5c0 2.2-1.9 4.4-4.6 4.4-2.4 0-4.4-2.2-4.4-4.4 0-2.6 2-4.4 4.4-4.4 2.7 0 4.6 1.8 4.6 4.4z"/>
			</g>
		</g>
	</g>
	<g id="Layer">
		<g id="Layer">
			<g id="Layer">
				<path id="Layer" fill-rule="evenodd" class="s0" d="m334.1 35.9l14.3 34.8h-9.5l-1.9-5h-11.7l-2 5h-9l13.8-34.8zm-5.5 21.2l-0.3 0.8h5.7l-0.2-0.6-2.6-7.5z"/>
			</g>
		</g>
	</g>
	<g id="Layer">
		<g id="Layer">
			<g id="Layer">
				<path id="Layer" class="s0" d="m350.5 70.7v-7.5h5.7v-19.4h-5.7v-7.7h19.8v7.7h-5.7v19.4h5.7v7.5z"/>
			</g>
		</g>
	</g>
</svg>