<svg version="1.2" xmlns="http://www.w3.org/2000/svg" viewBox="0 0 370 87" width="370" height="87">
	<title>klevere-logo-svg</title>
	<defs>
		<clipPath clipPathUnits="userSpaceOnUse" id="cp1">
			<path d="m3.17 2h96v82.2h-96z"/>
		</clipPath>
	</defs>
	<style>
		.s0 { fill: #ffffff } 
	</style>
	<g id="Clip-Path" clip-path="url(#cp1)">
		<g id="Layer">
			<path id="Layer" fill-rule="evenodd" class="s0" d="m99.2 57.7c0 4-3.3 7.3-7.2 7.3h-2.4v4.8c0 8-6.5 14.4-14.4 14.4h-48c-8 0-14.4-6.4-14.4-14.4v-4.8h-2.4c-4 0-7.2-3.3-7.2-7.3 0-4 3.2-7.2 7.2-7.2h2.4v-4.8c0-8 6.4-14.5 14.4-14.5h19.2v-10.9c-1.5-0.9-2.7-2.1-3.5-3.6-2.7-4.6-1.1-10.5 3.5-13.1 4.6-2.7 10.4-1.1 13.1 3.5 2.6 4.6 1.1 10.5-3.5 13.2v10.9h19.2c7.9 0 14.4 6.5 14.4 14.5v4.8h2.4c3.9 0 7.2 3.2 7.2 7.2zm-14.4-12c0-5.3-4.3-9.6-9.6-9.7h-48c-5.3 0.1-9.6 4.4-9.6 9.7v24.1c0 5.3 4.3 9.6 9.6 9.6h48c5.3 0 9.6-4.3 9.6-9.6zm-9.6 12c0 4-3.3 7.3-7.2 7.3-4 0-7.2-3.3-7.2-7.3 0-4 3.2-7.2 7.2-7.2 3.9 0 7.2 3.2 7.2 7.2zm-33.6 0c0 4-3.3 7.3-7.2 7.3-4 0-7.2-3.3-7.2-7.3 0-4 3.2-7.2 7.2-7.2 3.9 0 7.2 3.2 7.2 7.2z"/>
		</g>
	</g>
	<g id="Layer">
		<g id="Layer">
			<g id="Layer">
				<path id="Layer" class="s0" d="m114 44.3v-37h7.9v16.3h0.4l13.4-16.3h9.3l-13.7 16.6 13.9 20.4h-9.4l-10.1-15.2-3.8 4.7v10.5z"/>
			</g>
		</g>
	</g>
	<g id="Layer">
		<g id="Layer">
			<g id="Layer">
				<path id="Layer" class="s0" d="m156.7 7.3v37h-7.7v-37z"/>
			</g>
		</g>
	</g>
	<g id="Layer">
		<g id="Layer">
			<g id="Layer">
				<path id="Layer" fill-rule="evenodd" class="s0" d="m175.5 44.9q-4.3 0-7.4-1.8-3.1-1.7-4.8-4.9-1.6-3.2-1.6-7.6 0-4.3 1.6-7.5 1.7-3.3 4.7-5.1 3.1-1.8 7.1-1.8 3.7 0 6.7 1.6 2.9 1.5 4.7 4.7 1.7 3.1 1.7 7.8v2.1h-18.9q0 3.1 1.7 4.9 1.7 1.8 4.6 1.8 1.9 0 3.3-0.8 1.4-0.8 2-2.4l7.1 0.5q-0.8 3.8-4.1 6.1-3.3 2.4-8.4 2.4zm-6.2-17.3h11.6q0-2.4-1.6-4-1.5-1.6-4-1.6-2.6 0-4.2 1.6-1.7 1.7-1.8 4z"/>
			</g>
		</g>
	</g>
	<g id="Layer">
		<g id="Layer">
			<g id="Layer">
				<path id="Layer" class="s0" d="m219.1 16.6l-9.7 27.7h-8.7l-9.7-27.7h8.1l5.8 19.8h0.3l5.7-19.8z"/>
			</g>
		</g>
	</g>
	<g id="Layer">
		<g id="Layer">
			<g id="Layer">
				<path id="Layer" fill-rule="evenodd" class="s0" d="m235.7 44.9q-4.3 0-7.4-1.8-3.1-1.7-4.8-4.9-1.6-3.2-1.6-7.6 0-4.3 1.6-7.5 1.7-3.3 4.7-5.1 3.1-1.8 7.1-1.8 3.7 0 6.7 1.6 2.9 1.5 4.7 4.7 1.7 3.1 1.7 7.8v2.1h-18.9q0 3.1 1.7 4.9 1.7 1.8 4.6 1.8 1.9 0 3.3-0.8 1.4-0.8 2-2.4l7.1 0.5q-0.8 3.8-4.1 6.1-3.3 2.4-8.4 2.4zm-6.2-17.3h11.6q0-2.4-1.6-4-1.5-1.6-4-1.6-2.6 0-4.2 1.6-1.7 1.7-1.8 4z"/>
			</g>
		</g>
	</g>
	<g id="Layer">
		<g id="Layer">
			<g id="Layer">
				<path id="Layer" class="s0" d="m253.4 44.3v-27.7h7.5v4.8h0.2q0.8-2.6 2.6-3.9 1.8-1.3 4.1-1.3 1.1 0 2.1 0.3 0.9 0.2 1.7 0.7l-2.3 6.3q-0.6-0.2-1.2-0.4-0.6-0.2-1.4-0.2-2.4 0-4 1.6-1.6 1.6-1.6 4.1v15.7z"/>
			</g>
		</g>
	</g>
	<g id="Layer">
		<g id="Layer">
			<g id="Layer">
				<path id="Layer" fill-rule="evenodd" class="s0" d="m287.8 44.9q-4.2 0-7.3-1.8-3.1-1.7-4.8-4.9-1.6-3.2-1.6-7.6 0-4.3 1.6-7.5 1.7-3.3 4.7-5.1 3.1-1.8 7.1-1.8 3.7 0 6.7 1.6 2.9 1.5 4.6 4.7 1.8 3.1 1.8 7.8v2.1h-18.9q0 3.1 1.7 4.9 1.7 1.8 4.6 1.8 1.9 0 3.3-0.8 1.4-0.8 2-2.4l7.1 0.5q-0.8 3.8-4.1 6.1-3.3 2.4-8.5 2.4zm-6.1-17.3h11.6q0-2.4-1.6-4-1.5-1.6-4-1.6-2.6 0-4.2 1.6-1.7 1.7-1.8 4z"/>
			</g>
		</g>
	</g>
	<g id="Layer">
		<g id="Layer">
			<g id="Layer">
				<path id="Layer" class="s0" d="m310.1 44.8q-1.8 0-3.1-1.3-1.3-1.2-1.2-3-0.1-1.8 1.2-3.1 1.3-1.2 3.1-1.2 1.7 0 3 1.2 1.3 1.3 1.3 3.1 0 1.8-1.3 3-1.3 1.3-3 1.3z"/>
			</g>
		</g>
	</g>
	<g id="Layer">
		<g id="Layer">
			<g id="Layer">
				<path id="Layer" fill-rule="evenodd" class="s0" d="m327.3 44.3h-8.4l12.7-37h10.1l12.8 37h-8.4l-2.8-8.4h-13.3zm4.7-14.6h9.4l-4.5-14h-0.3z"/>
			</g>
		</g>
	</g>
	<g id="Layer">
		<g id="Layer">
			<g id="Layer">
				<path id="Layer" class="s0" d="m366.7 7.3v37h-7.8v-37z"/>
			</g>
		</g>
	</g>
	<g id="Layer">
		<g id="Layer">
			<g id="Layer">
				<path id="Layer" class="s0" d="m113.9 59.8h2.7l5.5 9.1h0.2l5.4-9.1h2.7l-7 11.5v8.1h-2.4v-8.1z"/>
			</g>
		</g>
	</g>
	<g id="Layer">
		<g id="Layer">
			<g id="Layer">
				<path id="Layer" fill-rule="evenodd" class="s0" d="m139.2 79.7q-2 0-3.5-1-1.5-0.9-2.4-2.6-0.8-1.7-0.8-4 0-2.3 0.8-4 0.9-1.7 2.4-2.7 1.5-0.9 3.5-0.9 2 0 3.5 0.9 1.5 1 2.3 2.7 0.8 1.7 0.8 4 0 2.3-0.8 4-0.8 1.7-2.3 2.6-1.5 1-3.5 1zm0-2.1q1.5 0 2.5-0.7 0.9-0.8 1.4-2.1 0.5-1.2 0.5-2.7 0-1.5-0.5-2.7-0.5-1.3-1.4-2.1-1-0.8-2.5-0.8-1.5 0-2.5 0.8-1 0.8-1.5 2.1-0.4 1.2-0.4 2.7 0 1.5 0.4 2.7 0.5 1.3 1.5 2.1 1 0.7 2.5 0.7z"/>
			</g>
		</g>
	</g>
	<g id="Layer">
		<g id="Layer">
			<g id="Layer">
				<path id="Layer" class="s0" d="m158.5 73.4v-8.7h2.3v14.7h-2.3v-2.5h-0.1q-0.5 1.1-1.6 1.9-1.1 0.8-2.8 0.8-2.1 0-3.4-1.4-1.3-1.4-1.3-4.2v-9.3h2.2v9.2q0 1.6 0.9 2.5 0.9 1 2.3 1 0.9 0 1.7-0.4 0.9-0.5 1.5-1.4 0.6-0.9 0.6-2.2z"/>
			</g>
		</g>
	</g>
	<g id="Layer">
		<g id="Layer">
			<g id="Layer">
				<path id="Layer" class="s0" d="m164.9 79.4v-14.7h2.2v2.2h0.1q0.4-1.1 1.5-1.8 1-0.7 2.4-0.7 0.6 0 1 0.2 0.5 0.1 0.8 0.4l-0.7 1.9q-0.3-0.1-0.6-0.2-0.3-0.1-0.7-0.1-1.6 0-2.7 1-1 1-1 2.5v9.3z"/>
			</g>
		</g>
	</g>
	<g id="Layer">
		<g id="Layer">
			<g id="Layer">
			</g>
		</g>
	</g>
	<g id="Layer">
		<g id="Layer">
			<g id="Layer">
				<path id="Layer" fill-rule="evenodd" class="s0" d="m183.9 79.4h-2.5l7.2-19.6h2.5l7.1 19.6h-2.4l-2-5.6h-7.9zm2.7-7.6h6.4l-3.1-8.9h-0.2z"/>
			</g>
		</g>
	</g>
	<g id="Layer">
		<g id="Layer">
			<g id="Layer">
				<path id="Layer" class="s0" d="m203.7 59.8v19.6h-2.4v-19.6z"/>
			</g>
		</g>
	</g>
	<g id="Layer">
		<g id="Layer">
			<g id="Layer">
			</g>
		</g>
	</g>
	<g id="Layer">
		<g id="Layer">
			<g id="Layer">
				<path id="Layer" class="s0" d="m219.5 79.4l-5.3-19.6h2.4l4.1 15.9h0.2l4.1-15.9h2.7l4.2 15.9h0.2l4.1-15.9h2.4l-5.4 19.6h-2.4l-4.3-15.6h-0.2l-4.3 15.6z"/>
			</g>
		</g>
	</g>
	<g id="Layer">
		<g id="Layer">
			<g id="Layer">
				<path id="Layer" class="s0" d="m241.2 79.4v-14.7h2.2v2.2h0.1q0.4-1.1 1.5-1.8 1-0.7 2.4-0.7 0.6 0 1 0.2 0.5 0.1 0.8 0.4l-0.7 1.9q-0.3-0.1-0.6-0.2-0.3-0.1-0.7-0.1-1.6 0-2.7 1-1 1-1 2.5v9.3z"/>
			</g>
		</g>
	</g>
	<g id="Layer">
		<g id="Layer">
			<g id="Layer">
				<path id="Layer" class="s0" d="m251.5 79.4v-14.7h2.3v14.7zm1.2-17.2q-0.7 0-1.2-0.4-0.4-0.5-0.4-1.1 0-0.6 0.4-1.1 0.5-0.4 1.2-0.4 0.6 0 1.1 0.4 0.5 0.5 0.5 1.1 0 0.6-0.5 1.1-0.5 0.4-1.1 0.4z"/>
			</g>
		</g>
	</g>
	<g id="Layer">
		<g id="Layer">
			<g id="Layer">
				<path id="Layer" class="s0" d="m264.3 64.7v1.9h-3.1v8.6q0 0.9 0.3 1.4 0.2 0.5 0.7 0.6 0.4 0.2 0.9 0.2 0.4 0 0.6-0.1 0.3 0 0.4 0l0.5 2q-0.3 0.1-0.7 0.2-0.4 0.1-1 0.1-1 0-1.9-0.5-0.9-0.4-1.5-1.2-0.6-0.8-0.6-2.1v-9.2h-2.2v-1.9h2.2v-3.5h2.3v3.5z"/>
			</g>
		</g>
	</g>
	<g id="Layer">
		<g id="Layer">
			<g id="Layer">
				<path id="Layer" class="s0" d="m267.7 79.4v-14.7h2.3v14.7zm1.1-17.2q-0.6 0-1.1-0.4-0.5-0.5-0.5-1.1 0-0.6 0.5-1.1 0.5-0.4 1.1-0.4 0.7 0 1.2 0.4 0.4 0.5 0.4 1.1 0 0.6-0.4 1.1-0.5 0.4-1.2 0.4z"/>
			</g>
		</g>
	</g>
	<g id="Layer">
		<g id="Layer">
			<g id="Layer">
				<path id="Layer" class="s0" d="m276.4 70.5v8.9h-2.3v-14.7h2.2v2.3h0.2q0.5-1.1 1.5-1.8 1.1-0.7 2.8-0.7 2.2 0 3.5 1.4 1.4 1.3 1.4 4.1v9.4h-2.2v-9.2q0-1.7-0.9-2.7-0.9-1-2.5-1-1.6 0-2.7 1.1-1 1-1 2.9z"/>
			</g>
		</g>
	</g>
	<g id="Layer">
		<g id="Layer">
			<g id="Layer">
				<path id="Layer" fill-rule="evenodd" class="s0" d="m295.8 85.2q-2.5 0-3.9-0.9-1.4-0.9-2.1-2.1l1.8-1.2q0.3 0.4 0.8 0.9 0.4 0.5 1.2 0.9 0.8 0.4 2.2 0.4 1.8 0 2.9-0.9 1.2-0.8 1.2-2.7v-3h-0.2q-0.3 0.5-0.7 1-0.5 0.6-1.3 1.1-0.9 0.4-2.3 0.4-1.8 0-3.2-0.8-1.4-0.8-2.2-2.5-0.8-1.6-0.8-3.9 0-2.2 0.8-3.9 0.8-1.7 2.2-2.6 1.4-0.9 3.2-0.9 1.5 0 2.3 0.5 0.9 0.4 1.3 1 0.5 0.6 0.7 1h0.2v-2.3h2.2v15.1q0 1.9-0.8 3.1-0.9 1.2-2.3 1.7-1.5 0.6-3.2 0.6zm-0.1-8.1q2 0 3.1-1.4 1.1-1.3 1.1-3.8 0-2.4-1.1-3.9-1-1.5-3.1-1.5-1.4 0-2.4 0.8-0.9 0.7-1.4 1.9-0.5 1.2-0.5 2.7 0 2.3 1.1 3.8 1.1 1.4 3.2 1.4z"/>
			</g>
		</g>
	</g>
	<g id="Layer">
		<g id="Layer">
			<g id="Layer">
			</g>
		</g>
	</g>
	<g id="Layer">
		<g id="Layer">
			<g id="Layer">
				<path id="Layer" class="s0" d="m313.1 61.9v-2.1h14.6v2.1h-6.1v17.5h-2.4v-17.5z"/>
			</g>
		</g>
	</g>
	<g id="Layer">
		<g id="Layer">
			<g id="Layer">
				<path id="Layer" fill-rule="evenodd" class="s0" d="m337.1 79.7q-2 0-3.5-1-1.5-0.9-2.4-2.6-0.8-1.7-0.8-4 0-2.3 0.8-4 0.9-1.7 2.4-2.7 1.5-0.9 3.5-0.9 2 0 3.5 0.9 1.5 1 2.3 2.7 0.8 1.7 0.8 4 0 2.3-0.8 4-0.8 1.7-2.3 2.6-1.5 1-3.5 1zm0-2.1q1.5 0 2.5-0.7 0.9-0.8 1.4-2.1 0.5-1.2 0.5-2.7 0-1.5-0.5-2.7-0.5-1.3-1.4-2.1-1-0.8-2.5-0.8-1.5 0-2.5 0.8-1 0.8-1.5 2.1-0.4 1.2-0.4 2.7 0 1.5 0.4 2.7 0.5 1.3 1.5 2.1 1 0.7 2.5 0.7z"/>
			</g>
		</g>
	</g>
	<g id="Layer">
		<g id="Layer">
			<g id="Layer">
				<path id="Layer" fill-rule="evenodd" class="s0" d="m353.1 79.7q-2 0-3.4-1-1.5-0.9-2.4-2.6-0.8-1.7-0.8-4 0-2.3 0.8-4 0.9-1.7 2.4-2.7 1.4-0.9 3.4-0.9 2 0 3.5 0.9 1.5 1 2.3 2.7 0.9 1.7 0.9 4 0 2.3-0.9 4-0.8 1.7-2.3 2.6-1.5 1-3.5 1zm0-2.1q1.5 0 2.5-0.7 1-0.8 1.5-2.1 0.4-1.2 0.4-2.7 0-1.5-0.4-2.7-0.5-1.3-1.5-2.1-1-0.8-2.5-0.8-1.5 0-2.5 0.8-0.9 0.8-1.4 2.1-0.5 1.2-0.5 2.7 0 1.5 0.5 2.7 0.5 1.3 1.4 2.1 1 0.7 2.5 0.7z"/>
			</g>
		</g>
	</g>
	<g id="Layer">
		<g id="Layer">
			<g id="Layer">
				<path id="Layer" class="s0" d="m365.5 59.8v19.6h-2.3v-19.6z"/>
			</g>
		</g>
	</g>
</svg>