<svg version="1.2" xmlns="http://www.w3.org/2000/svg" viewBox="0 0 342 64" width="342" height="64">
	<title>klevere-logo-svg</title>
	<defs>
		<clipPath clipPathUnits="userSpaceOnUse" id="cp1">
			<path d="m4.5 3h66v56.43h-66z"/>
		</clipPath>
	</defs>
	<style>
		.s0 { fill: #ffffff } 
	</style>
	<g id="Clip-Path" clip-path="url(#cp1)">
		<g id="Layer">
			<path id="Layer" fill-rule="evenodd" class="s0" d="m70.5 41.3c0 2.7-2.2 5-5 5h-1.6v3.3c0 5.4-4.4 9.9-9.9 9.9h-33c-5.5 0-9.9-4.5-9.9-9.9v-3.3h-1.6c-2.8 0-5-2.3-5-5 0-2.7 2.2-4.9 5-4.9h1.6v-3.3c0-5.5 4.4-9.9 9.9-9.9h13.2v-7.6c-1-0.5-1.8-1.4-2.4-2.4-1.8-3.1-0.8-7.2 2.4-9 3.2-1.8 7.2-0.7 9 2.4 1.8 3.2 0.8 7.2-2.4 9v7.6h13.2c5.5 0 9.9 4.4 9.9 9.9v3.3h1.6c2.8 0 5 2.2 5 4.9zm-9.9-8.2c0-3.7-3-6.6-6.6-6.6h-33c-3.6 0-6.6 2.9-6.6 6.6v16.5c0 3.6 3 6.5 6.6 6.5h33c3.6 0 6.6-2.9 6.6-6.5zm-6.6 8.2c0 2.7-2.2 4.9-5 4.9-2.7 0-4.9-2.2-4.9-4.9 0-2.7 2.2-5 4.9-5 2.8 0 5 2.3 5 5zm-23.1 0c0 2.7-2.2 4.9-4.9 4.9-2.8 0-5-2.2-5-4.9 0-2.7 2.2-5 5-5 2.7 0 4.9 2.3 4.9 5z"/>
		</g>
	</g>
	<g id="Layer">
		<g id="Layer">
			<g id="Layer">
				<path id="Layer" class="s0" d="m93 44.4v13.3h-8.4v-34.4h8.4v13.4l9.6-13.4h10v0.5l-12.2 16.6 13.3 16.9v0.4h-10.4z"/>
			</g>
		</g>
	</g>
	<g id="Layer">
		<g id="Layer">
			<g id="Layer">
				<path id="Layer" class="s0" d="m123.5 57.7h-7.9v-34.4h7.9z"/>
			</g>
		</g>
	</g>
	<g id="Layer">
		<g id="Layer">
			<g id="Layer">
				<path id="Layer" fill-rule="evenodd" class="s0" d="m154.5 47.4h-19.1c0.9 2.5 3.4 3.7 5.7 3.8 1.7 0 3.4-0.6 4.5-1.9h8.4c-2 5.8-7.5 8.7-13 8.7-6.9 0-13.7-4.5-13.7-13.6 0-9.1 6.8-13.7 13.8-13.7 6.8 0 13.7 4.6 13.7 13.7 0 1.1-0.1 2-0.3 3zm-13.6-9.9c-2.3 0-4.4 1.3-5.2 3.9h10.6c-0.7-2.7-2.9-3.9-5.4-3.9z"/>
			</g>
		</g>
	</g>
	<g id="Layer">
		<g id="Layer">
			<g id="Layer">
				<path id="Layer" class="s0" d="m167.9 57.8l-10.1-25.4v-1.3h8l3.3 8.5 2 6.8 1.8-6.8 3.4-8.5h8v1.3l-10.1 25.4z"/>
			</g>
		</g>
	</g>
	<g id="Layer">
		<g id="Layer">
			<g id="Layer">
				<path id="Layer" fill-rule="evenodd" class="s0" d="m213.8 47.4h-19c0.9 2.5 3.3 3.7 5.7 3.8 1.7 0 3.3-0.6 4.4-1.9h8.5c-2.1 5.8-7.5 8.7-13 8.7-6.9 0-13.8-4.5-13.8-13.6 0-9.1 6.9-13.7 13.8-13.7 6.9 0 13.7 4.6 13.7 13.7 0 1.1-0.1 2-0.3 3zm-13.5-9.9c-2.3 0-4.5 1.3-5.2 3.9h10.6c-0.8-2.7-2.9-3.9-5.4-3.9z"/>
			</g>
		</g>
	</g>
	<g id="Layer">
		<g id="Layer">
			<g id="Layer">
				<path id="Layer" class="s0" d="m232 30.6c1 0 2 0.1 3 0.4l-0.1 7.3c-0.8-0.3-1.7-0.4-2.6-0.4-2.8 0-5.6 1.5-5.6 5.1v14.7h-7.8v-26.6h7l0.3 1.8c1.7-1.6 3.7-2.3 5.8-2.3z"/>
			</g>
		</g>
	</g>
	<g id="Layer">
		<g id="Layer">
			<g id="Layer">
				<path id="Layer" fill-rule="evenodd" class="s0" d="m265.5 47.4h-19.1c0.9 2.5 3.3 3.7 5.7 3.8 1.7 0 3.3-0.6 4.5-1.9h8.4c-2 5.8-7.5 8.7-13 8.7-6.9 0-13.7-4.5-13.7-13.6 0-9.1 6.8-13.7 13.7-13.7 6.9 0 13.8 4.6 13.8 13.7 0 1.1-0.1 2-0.3 3zm-13.6-9.9c-2.3 0-4.4 1.3-5.2 3.9h10.6c-0.7-2.7-2.9-3.9-5.4-3.9z"/>
			</g>
		</g>
	</g>
	<g id="Layer">
		<g id="Layer">
			<g id="Layer">
				<path id="Layer" class="s0" d="m277.9 53.5c0 2.2-1.9 4.4-4.6 4.4-2.4 0-4.4-2.2-4.4-4.4 0-2.6 2-4.4 4.4-4.4 2.7 0 4.6 1.8 4.6 4.4z"/>
			</g>
		</g>
	</g>
	<g id="Layer">
		<g id="Layer">
			<g id="Layer">
				<path id="Layer" fill-rule="evenodd" class="s0" d="m301.1 22.9l14.3 34.8h-9.5l-1.9-5h-11.7l-2 5h-9l13.8-34.8zm-5.5 21.2l-0.3 0.8h5.7l-0.2-0.6-2.6-7.5z"/>
			</g>
		</g>
	</g>
	<g id="Layer">
		<g id="Layer">
			<g id="Layer">
				<path id="Layer" class="s0" d="m317.5 57.7v-7.5h5.7v-19.4h-5.7v-7.7h19.8v7.7h-5.7v19.4h5.7v7.5z"/>
			</g>
		</g>
	</g>
</svg>